<svg width="15" height="15" viewBox="0 0 15 15" fill="none" xmlns="http://www.w3.org/2000/svg">
    <path d="M8.52866 7.59566L14.0161 2.1082C14.1246 1.98157 14.1812 1.81868 14.1748 1.65208C14.1684 1.48549 14.0993 1.32746 13.9814 1.20957C13.8635 1.09168 13.7055 1.02262 13.5389 1.01619C13.3723 1.00975 13.2094 1.06642 13.0828 1.17486L7.59532 6.66233L2.10785 1.16824C1.98321 1.0436 1.81415 0.973572 1.63788 0.973572C1.4616 0.973572 1.29255 1.0436 1.1679 1.16824C1.04325 1.29289 0.973229 1.46194 0.973229 1.63822C0.973229 1.81449 1.04325 1.98355 1.1679 2.1082L6.66199 7.59566L1.1679 13.0831C1.09861 13.1425 1.04233 13.2155 1.0026 13.2976C0.962865 13.3797 0.940538 13.4692 0.937017 13.5604C0.933496 13.6515 0.948856 13.7424 0.982135 13.8274C1.01541 13.9123 1.06589 13.9895 1.1304 14.054C1.19491 14.1185 1.27206 14.169 1.357 14.2022C1.44194 14.2355 1.53285 14.2509 1.62401 14.2474C1.71517 14.2438 1.80462 14.2215 1.88674 14.1818C1.96887 14.142 2.04189 14.0858 2.10123 14.0165L7.59532 8.529L13.0828 14.0165C13.2094 14.1249 13.3723 14.1816 13.5389 14.1751C13.7055 14.1687 13.8635 14.0996 13.9814 13.9818C14.0993 13.8639 14.1684 13.7058 14.1748 13.5392C14.1812 13.3727 14.1246 13.2098 14.0161 13.0831L8.52866 7.59566Z" fill="#FFFDF5"/>
</svg>
