<svg width="20" height="20" viewBox="0 0 20 20" fill="none" xmlns="http://www.w3.org/2000/svg">
    <path d="M9.07184 2.80564C10.2752 2.80454 11.4519 3.16038 12.4531 3.82816C13.4542 4.49594 14.2348 5.44564 14.6961 6.55713C15.1573 7.66861 15.2786 8.89194 15.0445 10.0724C14.8104 11.2528 14.2315 12.3372 13.3809 13.1886C12.5304 14.0399 11.4464 14.6198 10.2662 14.855C9.08603 15.0902 7.86259 14.97 6.75068 14.5098C5.63878 14.0495 4.68836 13.2698 4.01967 12.2693C3.35098 11.2687 2.99406 10.0924 2.99406 8.88897C3.00135 7.27878 3.64385 5.73653 4.78192 4.59742C5.91999 3.45831 7.46165 2.8144 9.07184 2.80564ZM9.07184 1.66675C7.64341 1.66675 6.24707 2.09032 5.05938 2.88391C3.87169 3.6775 2.946 4.80546 2.39937 6.12514C1.85274 7.44483 1.70971 8.89698 1.98839 10.298C2.26706 11.6989 2.95491 12.9858 3.96495 13.9959C4.975 15.0059 6.26188 15.6937 7.66285 15.9724C9.06382 16.2511 10.516 16.1081 11.8357 15.5614C13.1553 15.0148 14.2833 14.0891 15.0769 12.9014C15.8705 11.7137 16.2941 10.3174 16.2941 8.88897C16.2941 6.97352 15.5331 5.13652 14.1787 3.78209C12.8243 2.42766 10.9873 1.66675 9.07184 1.66675Z" fill="#121212"/>
    <path d="M19.4449 18.4945L15.3504 14.3723L14.5615 15.1556L18.656 19.2779C18.7074 19.3297 18.7685 19.3708 18.8359 19.399C18.9032 19.4272 18.9755 19.4418 19.0484 19.4421C19.1214 19.4423 19.1938 19.4282 19.2613 19.4005C19.3289 19.3728 19.3903 19.3321 19.4421 19.2806C19.4939 19.2292 19.535 19.1681 19.5632 19.1007C19.5914 19.0334 19.606 18.9612 19.6063 18.8882C19.6065 18.8152 19.5924 18.7428 19.5647 18.6753C19.537 18.6078 19.4963 18.5463 19.4449 18.4945Z" fill="#121212"/>
</svg>
